<?xml version="1.0" encoding="utf-8" standalone="no"?>
<!DOCTYPE svg PUBLIC "-//W3C//DTD SVG 1.1//EN"
  "http://www.w3.org/Graphics/SVG/1.1/DTD/svg11.dtd">
<svg xmlns:xlink="http://www.w3.org/1999/xlink" width="576pt" height="576pt" viewBox="0 0 576 576" xmlns="http://www.w3.org/2000/svg" version="1.1">
 <metadata>
  <rdf:RDF xmlns:dc="http://purl.org/dc/elements/1.1/" xmlns:cc="http://creativecommons.org/ns#" xmlns:rdf="http://www.w3.org/1999/02/22-rdf-syntax-ns#">
   <cc:Work>
    <dc:type rdf:resource="http://purl.org/dc/dcmitype/StillImage"/>
    <dc:date>2023-09-29T00:43:56.036287</dc:date>
    <dc:format>image/svg+xml</dc:format>
    <dc:creator>
     <cc:Agent>
      <dc:title>Matplotlib v3.8.0, https://matplotlib.org/</dc:title>
     </cc:Agent>
    </dc:creator>
   </cc:Work>
  </rdf:RDF>
 </metadata>
 <defs>
  <style type="text/css">*{stroke-linejoin: round; stroke-linecap: butt}</style>
 </defs>
 <g id="figure_1">
  <g id="patch_1">
   <path d="M 0 576 
L 576 576 
L 576 0 
L 0 0 
z
" style="fill: #ffffff"/>
  </g>
  <g id="axes_1">
   <g id="patch_2">
    <path d="M 268.715047 492.053175 
C 277.496016 493.209212 286.34326 493.789091 295.199999 493.789091 
C 304.056738 493.789091 312.903983 493.209212 321.684951 492.053176 
L 295.2 290.88 
z
" style="fill: #0e0c09"/>
   </g>
   <g id="patch_3">
    <path d="M 217.55005 478.343555 
C 225.732609 481.732882 234.128308 484.582838 242.683261 486.875131 
C 251.238213 489.167423 259.934079 490.897139 268.715047 492.053175 
L 295.2 290.88 
z
" style="fill: #0c0a08"/>
   </g>
   <g id="patch_4">
    <path d="M 171.676768 451.858602 
C 178.703291 457.250243 186.07529 462.176056 193.745451 466.604425 
C 201.415612 471.032795 209.36749 474.954227 217.55005 478.343555 
L 295.2 290.88 
z
" style="fill: #0b0907"/>
   </g>
   <g id="patch_5">
    <path d="M 134.221391 414.403223 
C 139.613032 421.429747 145.458942 428.09573 151.721602 434.35839 
C 157.984262 440.621051 164.650245 446.466961 171.676768 451.858602 
L 295.2 290.88 
z
" style="fill: #090706"/>
   </g>
   <g id="patch_6">
    <path d="M 107.736441 368.52994 
C 111.125768 376.7125 115.0472 384.664378 119.475569 392.334539 
C 123.903938 400.0047 128.82975 407.3767 134.221391 414.403223 
L 295.2 290.88 
z
" style="fill: #080605"/>
   </g>
   <g id="patch_7">
    <path d="M 94.026823 317.364942 
C 95.182859 326.14591 96.912574 334.841776 99.204866 343.396729 
C 101.497159 351.951682 104.347114 360.34738 107.736441 368.52994 
L 295.2 290.88 
z
" style="fill: #4f454b"/>
   </g>
   <g id="patch_8">
    <path d="M 94.026826 264.395038 
C 92.870789 273.176006 92.29091 282.023251 92.290909 290.87999 
C 92.290909 299.736729 92.870787 308.583973 94.026823 317.364942 
L 295.2 290.88 
z
" style="fill: #f6b697"/>
   </g>
   <g id="patch_9">
    <path d="M 107.736449 213.230041 
C 104.347121 221.4126 101.497165 229.808299 99.204872 238.363251 
C 96.912579 246.918204 95.182863 255.61407 94.026826 264.395038 
L 295.2 290.88 
z
" style="fill: #d5bd9e"/>
   </g>
   <g id="patch_10">
    <path d="M 134.221404 167.356761 
C 128.829762 174.383284 123.903949 181.755282 119.475579 189.425443 
C 115.047209 197.095603 111.125777 205.047481 107.736449 213.230041 
L 295.2 290.88 
z
" style="fill: #b2bbaf"/>
   </g>
   <g id="patch_11">
    <path d="M 171.676784 129.901385 
C 164.650261 135.293026 157.984277 141.138936 151.721616 147.401595 
C 145.458956 153.664255 139.613045 160.330238 134.221404 167.356761 
L 295.2 290.88 
z
" style="fill: #a4b2ac"/>
   </g>
   <g id="patch_12">
    <path d="M 217.550069 103.416437 
C 209.367509 106.805764 201.41563 110.727195 193.745469 115.155564 
C 186.075308 119.583933 178.703308 124.509745 171.676784 129.901385 
L 295.2 290.88 
z
" style="fill: #97a8aa"/>
   </g>
   <g id="patch_13">
    <path d="M 268.715068 89.706822 
C 259.934099 90.862858 251.238233 92.592572 242.68328 94.884864 
C 234.128327 97.177156 225.732629 100.027111 217.550069 103.416437 
L 295.2 290.88 
z
" style="fill: #899fa7"/>
   </g>
   <g id="patch_14">
    <path d="M 321.684971 89.706827 
C 312.904003 88.55079 304.056759 87.97091 295.20002 87.970909 
C 286.343281 87.970908 277.496036 88.550786 268.715068 89.706822 
L 295.2 290.88 
z
" style="fill: #7c96a5"/>
   </g>
   <g id="patch_15">
    <path d="M 372.849968 103.416452 
C 364.667408 100.027124 356.27171 97.177168 347.716758 94.884874 
C 339.161805 92.592581 330.46594 90.862864 321.684971 89.706827 
L 295.2 290.88 
z
" style="fill: #7c96a5"/>
   </g>
   <g id="patch_16">
    <path d="M 418.723247 129.901409 
C 411.696724 124.509768 404.324726 119.583954 396.654565 115.155584 
C 388.984405 110.727214 381.032527 106.805781 372.849968 103.416452 
L 295.2 290.88 
z
" style="fill: #7c96a5"/>
   </g>
   <g id="patch_17">
    <path d="M 456.17862 167.356792 
C 450.78698 160.330268 444.941071 153.664284 438.678411 147.401623 
C 432.415752 141.138962 425.74977 135.293051 418.723247 129.901409 
L 295.2 290.88 
z
" style="fill: #7c96a5"/>
   </g>
   <g id="patch_18">
    <path d="M 482.663566 213.230077 
C 479.27424 205.047517 475.352809 197.095639 470.92444 189.425477 
C 466.496072 181.755316 461.570261 174.383316 456.17862 167.356792 
L 295.2 290.88 
z
" style="fill: #7c96a5"/>
   </g>
   <g id="patch_19">
    <path d="M 496.373179 264.395077 
C 495.217144 255.614109 493.48743 246.918243 491.195138 238.36329 
C 488.902847 229.808336 486.052892 221.412638 482.663566 213.230077 
L 295.2 290.88 
z
" style="fill: #7c96a5"/>
   </g>
   <g id="patch_20">
    <path d="M 496.373172 317.364981 
C 497.529209 308.584013 498.10909 299.736768 498.109091 290.880029 
C 498.109092 282.02329 497.529214 273.176046 496.373179 264.395077 
L 295.2 290.88 
z
" style="fill: #272f42"/>
   </g>
   <g id="patch_21">
    <path d="M 482.663544 368.529977 
C 486.052872 360.347417 488.902829 351.951719 491.195123 343.396767 
C 493.487417 334.841815 495.217134 326.145949 496.373172 317.364981 
L 295.2 290.88 
z
" style="fill: #171a23"/>
   </g>
   <g id="patch_22">
    <path d="M 456.178585 414.403255 
C 461.570227 407.376732 466.49604 400.004734 470.924411 392.334574 
C 475.352782 384.664413 479.274215 376.712536 482.663544 368.529977 
L 295.2 290.88 
z
" style="fill: #080605"/>
   </g>
   <g id="patch_23">
    <path d="M 418.723201 451.858626 
C 425.749725 446.466986 432.415709 440.621077 438.67837 434.358418 
C 444.941031 428.095759 450.786943 421.429777 456.178585 414.403255 
L 295.2 290.88 
z
" style="fill: #080605"/>
   </g>
   <g id="patch_24">
    <path d="M 372.849914 478.34357 
C 381.032474 474.954244 388.984353 471.032813 396.654515 466.604445 
C 404.324676 462.176077 411.696676 457.250266 418.723201 451.858626 
L 295.2 290.88 
z
" style="fill: #0b0907"/>
   </g>
   <g id="patch_25">
    <path d="M 321.684913 492.05318 
C 330.465882 490.897146 339.161748 489.167432 347.716701 486.875141 
C 356.271654 484.58285 364.667353 481.732896 372.849914 478.34357 
L 295.2 290.88 
z
" style="fill: #0e0c09"/>
   </g>
   <g id="matplotlib.axis_1"/>
   <g id="matplotlib.axis_2"/>
   <g id="text_1">
    <!-- 0 -->
    <g transform="translate(288.259374 516.600312) scale(0.1 -0.1)">
     <defs>
      <path id="Hibana-SubMedium-30" d="M 2221 -90 
C 3738 -90 4173 1050 4173 2426 
C 4173 3802 3738 4941 2221 4941 
C 704 4941 269 3802 269 2426 
C 269 1050 704 -90 2221 -90 
z
M 2221 480 
C 1139 480 877 1299 877 2426 
C 877 3546 1139 4371 2221 4371 
C 3302 4371 3565 3546 3565 2426 
C 3565 1299 3302 480 2221 480 
z
" transform="scale(0.015625)"/>
     </defs>
     <use xlink:href="#Hibana-SubMedium-30"/>
    </g>
   </g>
   <g id="text_2">
    <!-- 1 -->
    <g transform="translate(233.872212 508.994956) scale(0.1 -0.1)">
     <defs>
      <path id="Hibana-SubMedium-31" d="M 1779 0 
L 1779 4813 
L 1178 4813 
C 858 4544 538 4397 218 4301 
L 218 3552 
C 538 3680 858 3846 1178 4218 
L 1178 0 
L 1779 0 
z
" transform="scale(0.015625)"/>
     </defs>
     <use xlink:href="#Hibana-SubMedium-31"/>
    </g>
   </g>
   <g id="text_3">
    <!-- 2 -->
    <g transform="translate(177.720309 486.69718) scale(0.1 -0.1)">
     <defs>
      <path id="Hibana-SubMedium-32" d="M 3578 0 
L 3578 576 
L 986 576 
L 2208 1702 
C 2880 2323 3437 2861 3437 3533 
C 3437 4358 3078 4941 1907 4941 
C 704 4941 269 4288 269 3552 
L 845 3552 
C 896 4128 1120 4371 1907 4371 
C 2624 4371 2835 4096 2835 3533 
C 2835 3104 2419 2637 1875 2144 
L 518 902 
C 262 666 128 365 128 102 
L 128 0 
L 3578 0 
z
" transform="scale(0.015625)"/>
     </defs>
     <use xlink:href="#Hibana-SubMedium-32"/>
    </g>
   </g>
   <g id="text_4">
    <!-- 3 -->
    <g transform="translate(131.394075 451.226542) scale(0.1 -0.1)">
     <defs>
      <path id="Hibana-SubMedium-33" d="M 1843 -90 
C 3110 -90 3584 576 3584 1325 
C 3584 1888 3354 2330 2733 2554 
C 3226 2720 3437 3123 3437 3597 
C 3437 4480 2893 4941 1843 4941 
C 813 4941 250 4307 250 3552 
L 819 3552 
C 819 4122 1203 4397 1843 4397 
C 2611 4397 2867 4173 2867 3597 
C 2867 3027 2426 2784 1850 2784 
C 1773 2784 1478 2784 1203 2797 
L 1203 2227 
C 1478 2240 1773 2240 1850 2240 
C 2490 2240 2976 1971 2976 1325 
C 2976 678 2438 486 1843 486 
C 1274 486 806 691 774 1242 
L 166 1242 
C 192 525 666 -90 1843 -90 
z
" transform="scale(0.015625)"/>
     </defs>
     <use xlink:href="#Hibana-SubMedium-33"/>
    </g>
   </g>
   <g id="text_5">
    <!-- 4 -->
    <g transform="translate(96.073438 405.000306) scale(0.1 -0.1)">
     <defs>
      <path id="Hibana-SubMedium-34" d="M 3034 0 
L 3034 1133 
L 3552 1133 
L 3552 1677 
L 3034 1677 
L 3034 4813 
L 2394 4813 
L 550 2304 
C 333 2003 128 1651 128 1133 
L 2445 1133 
L 2445 0 
L 3034 0 
z
M 2445 4051 
L 2445 1677 
L 832 1677 
L 2445 4051 
z
" transform="scale(0.015625)"/>
     </defs>
     <use xlink:href="#Hibana-SubMedium-34"/>
    </g>
   </g>
   <g id="text_6">
    <!-- 5 -->
    <g transform="translate(73.735041 351.168714) scale(0.1 -0.1)">
     <defs>
      <path id="Hibana-SubMedium-35" d="M 256 1235 
C 275 691 678 -90 1837 -90 
C 2995 -90 3565 653 3565 1517 
C 3565 2349 3213 3162 1971 3162 
C 1594 3162 1261 3059 992 2893 
L 1094 4237 
L 3315 4237 
L 3315 4813 
L 550 4813 
L 352 2266 
L 941 2266 
C 1088 2438 1459 2605 1875 2605 
C 2547 2605 2957 2336 2957 1517 
C 2957 851 2509 480 1837 480 
C 1165 480 909 909 870 1235 
L 256 1235 
z
" transform="scale(0.015625)"/>
     </defs>
     <use xlink:href="#Hibana-SubMedium-35"/>
    </g>
   </g>
   <g id="text_7">
    <!-- 6 -->
    <g transform="translate(65.559375 293.400301) scale(0.1 -0.1)">
     <defs>
      <path id="Hibana-SubMedium-36" d="M 2099 -90 
C 3290 -90 3840 704 3840 1498 
C 3840 2406 3379 3162 2157 3162 
C 1581 3162 1171 2976 870 2688 
C 909 3706 1152 4371 2112 4371 
C 2918 4371 3226 4141 3283 3552 
L 3853 3552 
C 3750 4480 3270 4941 2112 4941 
C 608 4941 269 3802 269 2426 
C 269 1050 627 -90 2099 -90 
z
M 2099 480 
C 1638 480 1242 653 1050 1082 
C 992 1210 947 1395 947 1549 
C 947 2246 1363 2598 2118 2598 
C 2854 2598 3238 2246 3238 1498 
C 3238 902 2771 480 2099 480 
z
" transform="scale(0.015625)"/>
     </defs>
     <use xlink:href="#Hibana-SubMedium-36"/>
    </g>
   </g>
   <g id="text_8">
    <!-- 7 -->
    <g transform="translate(74.375671 235.631889) scale(0.1 -0.1)">
     <defs>
      <path id="Hibana-SubMedium-37" d="M 1350 0 
L 2886 3546 
C 3123 4090 3219 4384 3219 4813 
L 77 4813 
L 77 4237 
L 2515 4237 
L 678 0 
L 1350 0 
z
" transform="scale(0.015625)"/>
     </defs>
     <use xlink:href="#Hibana-SubMedium-37"/>
    </g>
   </g>
   <g id="text_9">
    <!-- 8 -->
    <g transform="translate(95.703137 181.8003) scale(0.1 -0.1)">
     <defs>
      <path id="Hibana-SubMedium-38" d="M 1984 -90 
C 3187 -90 3725 544 3725 1325 
C 3725 1888 3462 2317 2842 2534 
C 3347 2688 3578 3123 3578 3597 
C 3578 4461 2970 4941 1984 4941 
C 998 4941 390 4397 390 3597 
C 390 3123 621 2688 1126 2534 
C 506 2317 243 1888 243 1325 
C 243 544 781 -90 1984 -90 
z
M 1984 2803 
C 1389 2803 979 3046 979 3603 
C 979 4160 1389 4410 1984 4410 
C 2579 4410 2989 4160 2989 3603 
C 2989 3046 2579 2803 1984 2803 
z
M 1984 486 
C 1338 486 870 678 870 1312 
C 870 1946 1318 2195 1984 2195 
C 2650 2195 3098 1946 3098 1312 
C 3098 678 2630 486 1984 486 
z
" transform="scale(0.015625)"/>
     </defs>
     <use xlink:href="#Hibana-SubMedium-38"/>
    </g>
   </g>
   <g id="text_10">
    <!-- 9 -->
    <g transform="translate(130.964403 135.574067) scale(0.1 -0.1)">
     <defs>
      <path id="Hibana-SubMedium-39" d="M 2010 4941 
C 819 4941 269 4147 269 3354 
C 269 2445 730 1690 1952 1690 
C 2528 1690 2938 1875 3238 2163 
C 3200 1146 2957 480 1997 480 
C 1318 480 1024 704 934 1267 
L 307 1267 
C 461 339 838 -90 1997 -90 
C 3501 -90 3834 1050 3834 2426 
C 3834 3802 3482 4941 2010 4941 
z
M 2010 4371 
C 2470 4371 2867 4198 3059 3770 
C 3117 3642 3162 3456 3162 3302 
C 3162 2605 2746 2253 1990 2253 
C 1254 2253 870 2605 870 3354 
C 870 3949 1338 4371 2010 4371 
z
" transform="scale(0.015625)"/>
     </defs>
     <use xlink:href="#Hibana-SubMedium-39"/>
    </g>
   </g>
   <g id="text_11">
    <!-- 10 -->
    <g transform="translate(173.100016 100.103433) scale(0.1 -0.1)">
     <use xlink:href="#Hibana-SubMedium-31"/>
     <use xlink:href="#Hibana-SubMedium-30" x="35.599991"/>
    </g>
   </g>
   <g id="text_12">
    <!-- 11 -->
    <g transform="translate(230.312858 77.805663) scale(0.1 -0.1)">
     <use xlink:href="#Hibana-SubMedium-31"/>
     <use xlink:href="#Hibana-SubMedium-31" x="35.599991"/>
    </g>
   </g>
   <g id="text_13">
    <!-- 12 -->
    <g transform="translate(295.200022 70.200313) scale(0.1 -0.1)">
     <use xlink:href="#Hibana-SubMedium-31"/>
     <use xlink:href="#Hibana-SubMedium-32" x="35.599991"/>
    </g>
   </g>
   <g id="text_14">
    <!-- 13 -->
    <g transform="translate(352.968434 77.805674) scale(0.1 -0.1)">
     <use xlink:href="#Hibana-SubMedium-31"/>
     <use xlink:href="#Hibana-SubMedium-33" x="35.599991"/>
    </g>
   </g>
   <g id="text_15">
    <!-- 14 -->
    <g transform="translate(406.800022 100.103455) scale(0.1 -0.1)">
     <use xlink:href="#Hibana-SubMedium-31"/>
     <use xlink:href="#Hibana-SubMedium-34" x="35.599991"/>
    </g>
   </g>
   <g id="text_16">
    <!-- 15 -->
    <g transform="translate(453.026253 135.574098) scale(0.1 -0.1)">
     <use xlink:href="#Hibana-SubMedium-31"/>
     <use xlink:href="#Hibana-SubMedium-35" x="35.599991"/>
    </g>
   </g>
   <g id="text_17">
    <!-- 16 -->
    <g transform="translate(488.496884 181.800337) scale(0.1 -0.1)">
     <use xlink:href="#Hibana-SubMedium-31"/>
     <use xlink:href="#Hibana-SubMedium-36" x="35.599991"/>
    </g>
   </g>
   <g id="text_18">
    <!-- 17 -->
    <g transform="translate(510.794652 235.631931) scale(0.1 -0.1)">
     <use xlink:href="#Hibana-SubMedium-31"/>
     <use xlink:href="#Hibana-SubMedium-37" x="35.599991"/>
    </g>
   </g>
   <g id="text_19">
    <!-- 18 -->
    <g transform="translate(518.4 293.400345) scale(0.1 -0.1)">
     <use xlink:href="#Hibana-SubMedium-31"/>
     <use xlink:href="#Hibana-SubMedium-38" x="35.599991"/>
    </g>
   </g>
   <g id="text_20">
    <!-- 19 -->
    <g transform="translate(510.794636 351.168756) scale(0.1 -0.1)">
     <use xlink:href="#Hibana-SubMedium-31"/>
     <use xlink:href="#Hibana-SubMedium-39" x="35.599991"/>
    </g>
   </g>
   <g id="text_21">
    <!-- 20 -->
    <g transform="translate(488.496852 405.000343) scale(0.1 -0.1)">
     <use xlink:href="#Hibana-SubMedium-32"/>
     <use xlink:href="#Hibana-SubMedium-30" x="58.799988"/>
    </g>
   </g>
   <g id="text_22">
    <!-- 21 -->
    <g transform="translate(453.026207 451.226573) scale(0.1 -0.1)">
     <use xlink:href="#Hibana-SubMedium-32"/>
     <use xlink:href="#Hibana-SubMedium-31" x="58.799988"/>
    </g>
   </g>
   <g id="text_23">
    <!-- 22 -->
    <g transform="translate(406.799966 486.697202) scale(0.1 -0.1)">
     <use xlink:href="#Hibana-SubMedium-32"/>
     <use xlink:href="#Hibana-SubMedium-32" x="58.799988"/>
    </g>
   </g>
   <g id="text_24">
    <!-- 23 -->
    <g transform="translate(352.968371 508.994968) scale(0.1 -0.1)">
     <use xlink:href="#Hibana-SubMedium-32"/>
     <use xlink:href="#Hibana-SubMedium-33" x="58.799988"/>
    </g>
   </g>
   <g id="legend_1">
    <g id="patch_26">
     <path d="M 40.499219 476.236312 
L 60.499219 476.236312 
L 60.499219 469.236312 
L 40.499219 469.236312 
z
" style="fill: #e2531b; stroke: #e2531b; stroke-linejoin: miter"/>
    </g>
    <g id="text_25">
     <!-- sleep -->
     <g transform="translate(68.499219 476.236312) scale(0.1 -0.1)">
      <defs>
       <path id="Hibana-SubMedium-73" d="M 1926 -90 
C 2765 -90 3302 256 3302 1024 
C 3302 1568 2842 1837 2278 1920 
L 1491 2035 
C 1094 2093 986 2170 986 2381 
C 986 2739 1408 2797 1830 2797 
C 2240 2797 2579 2637 2669 2406 
L 3264 2406 
C 3245 2816 2829 3354 1766 3354 
C 928 3354 378 3059 378 2381 
C 378 1760 864 1530 1363 1459 
L 2118 1350 
C 2534 1293 2688 1216 2688 973 
C 2688 608 2413 486 1824 486 
C 1331 486 1024 634 954 934 
L 346 934 
C 346 493 755 -90 1926 -90 
z
" transform="scale(0.015625)"/>
       <path id="Hibana-SubMedium-6c" d="M 1082 0 
L 1082 5005 
L 499 5005 
L 499 0 
L 1082 0 
z
" transform="scale(0.015625)"/>
       <path id="Hibana-SubMedium-65" d="M 1978 -90 
C 2624 -90 3264 122 3539 922 
L 2963 922 
C 2746 563 2336 486 1978 486 
C 1229 486 890 909 870 1453 
L 3648 1453 
C 3648 3027 2675 3354 1978 3354 
C 691 3354 275 2400 275 1632 
C 275 659 742 -90 1978 -90 
z
M 883 1978 
C 979 2464 1357 2784 1958 2784 
C 2323 2784 2931 2637 3040 1978 
L 883 1978 
z
" transform="scale(0.015625)"/>
       <path id="Hibana-SubMedium-70" d="M 1088 -1779 
L 1088 378 
C 1286 115 1677 -90 2163 -90 
C 3302 -90 3834 800 3834 1632 
C 3834 2470 3302 3354 2163 3354 
C 1677 3354 1286 3123 1088 2880 
L 1088 3226 
L 499 3226 
L 499 -1779 
L 1088 -1779 
z
M 2163 486 
C 1446 506 1088 941 1088 1632 
C 1088 2323 1446 2758 2163 2778 
C 2893 2797 3238 2336 3238 1632 
C 3238 934 2893 467 2163 486 
z
" transform="scale(0.015625)"/>
      </defs>
      <use xlink:href="#Hibana-SubMedium-73"/>
      <use xlink:href="#Hibana-SubMedium-6c" x="56.899994"/>
      <use xlink:href="#Hibana-SubMedium-65" x="81.599991"/>
      <use xlink:href="#Hibana-SubMedium-65" x="142.699982"/>
      <use xlink:href="#Hibana-SubMedium-70" x="203.799973"/>
     </g>
    </g>
    <g id="patch_27">
     <path d="M 40.499219 491.836312 
L 60.499219 491.836312 
L 60.499219 484.836312 
L 40.499219 484.836312 
z
" style="fill: #8367c7; stroke: #8367c7; stroke-linejoin: miter"/>
    </g>
    <g id="text_26">
     <!-- out -->
     <g transform="translate(68.499219 491.836312) scale(0.1 -0.1)">
      <defs>
       <path id="Hibana-SubMedium-6f" d="M 2003 -90 
C 3296 -90 3750 864 3750 1632 
C 3750 2400 3296 3354 2003 3354 
C 717 3354 262 2400 262 1632 
C 262 864 717 -90 2003 -90 
z
M 2003 486 
C 1306 486 870 909 870 1632 
C 870 2355 1293 2778 2003 2778 
C 2714 2778 3142 2355 3142 1632 
C 3142 909 2701 486 2003 486 
z
" transform="scale(0.015625)"/>
       <path id="Hibana-SubMedium-75" d="M 1824 -90 
C 2496 -90 2880 166 2976 352 
L 2976 0 
L 3571 0 
L 3571 3226 
L 2976 3226 
L 2976 1293 
C 2976 1222 2976 1139 2963 1069 
C 2893 685 2419 499 1946 499 
C 1344 499 1050 723 1050 1286 
L 1050 3226 
L 454 3226 
L 454 1261 
C 454 333 902 -90 1824 -90 
z
" transform="scale(0.015625)"/>
       <path id="Hibana-SubMedium-74" d="M 2138 576 
C 1670 557 1440 570 1440 1082 
L 1440 2701 
L 2362 2701 
L 2355 3226 
L 1440 3226 
L 1440 4371 
L 858 4371 
L 858 3226 
L 224 3226 
L 224 2701 
L 858 2701 
L 858 1126 
C 858 0 1235 0 2112 0 
L 2342 0 
L 2323 582 
L 2138 576 
z
" transform="scale(0.015625)"/>
      </defs>
      <use xlink:href="#Hibana-SubMedium-6f"/>
      <use xlink:href="#Hibana-SubMedium-75" x="62.699997"/>
      <use xlink:href="#Hibana-SubMedium-74" x="126.299988"/>
     </g>
    </g>
    <g id="patch_28">
     <path d="M 40.499219 507.436312 
L 60.499219 507.436312 
L 60.499219 500.436312 
L 40.499219 500.436312 
z
" style="fill: #8fd694; stroke: #8fd694; stroke-linejoin: miter"/>
    </g>
    <g id="text_27">
     <!-- project -->
     <g transform="translate(68.499219 507.436312) scale(0.1 -0.1)">
      <defs>
       <path id="Hibana-SubMedium-72" d="M 1094 0 
L 1094 1933 
C 1094 2003 1094 2086 1107 2157 
C 1178 2541 1670 2771 2144 2771 
C 2234 2771 2317 2765 2400 2746 
L 2515 3341 
C 2432 3354 2349 3354 2253 3354 
C 1581 3354 1197 3078 1094 2880 
L 1094 3226 
L 499 3226 
L 499 0 
L 1094 0 
z
" transform="scale(0.015625)"/>
       <path id="Hibana-SubMedium-6a" d="M 736 4096 
C 954 4096 1139 4275 1139 4499 
C 1139 4723 954 4902 736 4902 
C 518 4902 333 4723 333 4499 
C 333 4275 518 4096 736 4096 
z
M -294 -1766 
C 582 -1766 1024 -1741 1024 -262 
L 1024 3226 
L 442 3226 
L 442 -307 
C 442 -1107 211 -1190 -320 -1171 
L -512 -1165 
L -538 -1766 
L -294 -1766 
z
" transform="scale(0.015625)"/>
       <path id="Hibana-SubMedium-63" d="M 2022 -90 
C 2605 -90 3002 96 3277 378 
L 2861 787 
C 2662 595 2381 486 2022 486 
C 1325 486 883 909 883 1632 
C 883 2355 1312 2778 2022 2778 
C 2381 2778 2669 2675 2861 2477 
L 3277 2886 
C 3002 3162 2598 3354 2022 3354 
C 736 3354 275 2400 275 1632 
C 275 864 736 -90 2022 -90 
z
" transform="scale(0.015625)"/>
      </defs>
      <use xlink:href="#Hibana-SubMedium-70"/>
      <use xlink:href="#Hibana-SubMedium-72" x="63.899994"/>
      <use xlink:href="#Hibana-SubMedium-6f" x="106.799988"/>
      <use xlink:href="#Hibana-SubMedium-6a" x="169.499985"/>
      <use xlink:href="#Hibana-SubMedium-65" x="192.199982"/>
      <use xlink:href="#Hibana-SubMedium-63" x="253.299973"/>
      <use xlink:href="#Hibana-SubMedium-74" x="309.299957"/>
     </g>
    </g>
    <g id="patch_29">
     <path d="M 40.499219 523.036313 
L 60.499219 523.036313 
L 60.499219 516.036313 
L 40.499219 516.036313 
z
" style="fill: #3d348b; stroke: #3d348b; stroke-linejoin: miter"/>
    </g>
    <g id="text_28">
     <!-- eat -->
     <g transform="translate(68.499219 523.036313) scale(0.1 -0.1)">
      <defs>
       <path id="Hibana-SubMedium-61" d="M 1606 -90 
C 2438 -90 2720 179 2861 352 
L 2861 0 
L 3443 0 
L 3443 1965 
C 3443 3021 2918 3315 2048 3354 
C 896 3354 474 2822 454 2330 
L 1030 2330 
C 1114 2611 1382 2771 1939 2771 
C 2637 2771 2854 2573 2854 2042 
L 1606 1965 
C 826 1914 307 1760 307 1018 
C 307 531 672 -90 1606 -90 
z
M 1830 493 
C 986 493 896 838 896 1018 
C 896 1325 1056 1408 1670 1453 
C 1786 1459 2406 1498 2848 1517 
L 2848 1184 
C 2848 742 2374 493 1830 493 
z
" transform="scale(0.015625)"/>
      </defs>
      <use xlink:href="#Hibana-SubMedium-65"/>
      <use xlink:href="#Hibana-SubMedium-61" x="61.099991"/>
      <use xlink:href="#Hibana-SubMedium-74" x="121.399979"/>
     </g>
    </g>
   </g>
   <g id="patch_30">
    <path d="M 182.721866 244.290032 
C 175.06054 262.786109 172.078479 282.889533 174.040783 302.813141 
C 176.003087 322.73675 182.849832 341.872121 193.972354 358.518151 
C 205.094876 375.164181 220.153517 388.812538 237.80959 398.249905 
C 255.465663 407.687273 275.17999 412.625455 295.2 412.625455 
" clip-path="url(#pd74170b294)" style="fill: none; stroke: #e2531b; stroke-width: 40; stroke-linejoin: miter"/>
   </g>
   <g id="patch_31">
    <path d="M 412.797079 259.369958 
C 406.448657 235.677325 393.085886 214.447335 374.469129 198.476748 
C 355.852372 182.506162 332.836676 172.528491 308.454047 169.858159 
C 284.071418 167.187827 259.441723 171.947479 237.80959 183.510095 
C 216.177457 195.072711 198.536426 212.907233 187.210463 234.664205 
" clip-path="url(#pd74170b294)" style="fill: none; stroke: #8367c7; stroke-width: 40; stroke-linejoin: miter"/>
   </g>
   <g id="patch_32">
    <path d="M 356.072727 396.314656 
C 365.286755 390.994935 373.763814 384.490258 381.287036 376.967036 
C 388.810258 369.443814 395.314935 360.966755 400.634656 351.752727 
" clip-path="url(#pd74170b294)" style="fill: none; stroke: #8fd694; stroke-width: 40; stroke-linejoin: miter"/>
   </g>
   <g id="patch_33">
    <path d="M 295.2 412.625455 
C 300.514043 412.625455 305.82239 412.277527 311.090971 411.583905 
C 316.359551 410.890283 321.577071 409.852454 326.710042 408.477079 
" clip-path="url(#pd74170b294)" style="fill: none; stroke: #e2531b; stroke-width: 40; stroke-linejoin: miter"/>
   </g>
   <g id="patch_34">
    <path d="M 296.179976 290.617416 
L 243.663239 94.622285 
L 241.703287 95.147452 
L 294.220024 291.142584 
z
" clip-path="url(#pd74170b294)" style="fill: #3d348b; stroke: #3d348b; stroke-linejoin: miter; stroke-linecap: round"/>
   </g>
   <g id="patch_35">
    <path d="M 294.937416 291.859976 
L 490.932548 344.376713 
L 491.457715 342.416761 
L 295.462584 289.900024 
z
" clip-path="url(#pd74170b294)" style="fill: #3d348b; stroke: #3d348b; stroke-linejoin: miter; stroke-linecap: round"/>
   </g>
  </g>
 </g>
 <defs>
  <clipPath id="pd74170b294">
   <rect x="72" y="69.12" width="446.4" height="443.52"/>
  </clipPath>
 </defs>
</svg>
